<svg class="loader" xmlns:dc="http://purl.org/dc/elements/1.1/" xmlns:cc="http://creativecommons.org/ns#" xmlns:rdf="http://www.w3.org/1999/02/22-rdf-syntax-ns#" xmlns:svg="http://www.w3.org/2000/svg" xmlns="http://www.w3.org/2000/svg" id="svg3767" width="132" height="132" viewBox="0 0 33 33" version="1.1">
    <metadata id="metadata3773">
        <rdf:RDF>
            <cc:Work rdf:about="">
                <dc:format>image/svg+xml</dc:format>
                <dc:type rdf:resource="http://purl.org/dc/dcmitype/StillImage" />
                <dc:title></dc:title>
            </cc:Work>
        </rdf:RDF>
    </metadata>
    <defs id="defs3771" />
    <circle r="16" cy="16.5" cx="16.5" id="circle" style="fill:none;stroke:#FFFFFF" />
    <g aria-label="λy" id="text" transform="translate(-9.5,-96.5)">
        <path d="m 16.175132,119.31945 4.517016,-10.18955 -0.429737,-1.21281 q -0.353339,-0.94542 -0.802176,-1.31786 -0.439287,-0.38199 -1.212814,-0.38199 -0.534784,0 -1.040919,0.1146 v -1.83355 q 0.64938,-0.16234 1.432457,-0.16234 0.983621,0 1.652101,0.31514 0.67803,0.30559 1.155516,0.96452 0.487035,0.65893 1.00272,2.06274 l 3.075009,8.52789 q 0.276942,0.74488 0.563433,1.09822 0.286492,0.35334 0.68758,0.35334 0.171895,0 0.620731,-0.0955 v 1.69985 q -0.248292,0.1146 -0.639831,0.18145 -0.391538,0.0668 -0.725778,0.0668 -0.859475,0 -1.384709,-0.41063 -0.525235,-0.42019 -0.878574,-1.42291 -1.365609,-3.80079 -1.68075,-4.75576 -0.315141,-0.95497 -0.401088,-1.36561 h -0.0573 q -0.33424,1.28921 -0.916772,2.65482 l -2.205985,5.1091 z" style="fill:#FFFFFF" id="lambda" />
        <path d="m 27.443798,108.75746 h 2.444727 l 2.148687,5.98768 q 0.487035,1.27966 0.64938,2.40652 h 0.0764 q 0.08595,-0.52523 0.315141,-1.27011 0.229193,-0.75443 2.425628,-7.12409 h 2.425628 l -4.517016,11.9658 q -1.231914,3.29465 -4.106378,3.29465 -0.744878,0 -1.451557,-0.16234 v -1.77625 q 0.506135,0.1146 1.155516,0.1146 1.623451,0 2.282382,-1.8813 l 0.391538,-0.99317 z" style="fill:#FFFFFF" id="y" />
    </g>
</svg>