<?xml version="1.0" encoding="UTF-8"?>
<svg
   xmlns="http://www.w3.org/2000/svg"
   version="1.1"
   viewBox="0 0 32 32"
   height="128"
   width="128">
   <ellipse
      style="fill:#372d43;stroke:none;"
      id="circle"
      cx="16"
      cy="16"
      rx="16"
      ry="16" />
   <g transform="translate(-10,-97)"
      id="text"
      aria-label="λy">
     <path
        id="lambda"
        style="fill:#ffffff"
        d="m 16.175132,119.31945 4.517016,-10.18955 -0.429737,-1.21281 q -0.353339,-0.94542 -0.802176,-1.31786 -0.439287,-0.38199 -1.212814,-0.38199 -0.534784,0 -1.040919,0.1146 v -1.83355 q 0.64938,-0.16234 1.432457,-0.16234 0.983621,0 1.652101,0.31514 0.67803,0.30559 1.155516,0.96452 0.487035,0.65893 1.00272,2.06274 l 3.075009,8.52789 q 0.276942,0.74488 0.563433,1.09822 0.286492,0.35334 0.68758,0.35334 0.171895,0 0.620731,-0.0955 v 1.69985 q -0.248292,0.1146 -0.639831,0.18145 -0.391538,0.0668 -0.725778,0.0668 -0.859475,0 -1.384709,-0.41063 -0.525235,-0.42019 -0.878574,-1.42291 -1.365609,-3.80079 -1.68075,-4.75576 -0.315141,-0.95497 -0.401088,-1.36561 h -0.0573 q -0.33424,1.28921 -0.916772,2.65482 l -2.205985,5.1091 z" />
     <path
        id="y"
        style="fill:#bdafc9"
        d="m 27.443798,108.75746 h 2.444727 l 2.148687,5.98768 q 0.487035,1.27966 0.64938,2.40652 h 0.0764 q 0.08595,-0.52523 0.315141,-1.27011 0.229193,-0.75443 2.425628,-7.12409 h 2.425628 l -4.517016,11.9658 q -1.231914,3.29465 -4.106378,3.29465 -0.744878,0 -1.451557,-0.16234 v -1.77625 q 0.506135,0.1146 1.155516,0.1146 1.623451,0 2.282382,-1.8813 l 0.391538,-0.99317 z" />
   </g>
</svg>
